<?xml version="1.0" standalone="no"?>
<!DOCTYPE svg PUBLIC "-//W3C//DTD SVG 20010904//EN"
 "http://www.w3.org/TR/2001/REC-SVG-20010904/DTD/svg10.dtd">
<svg version="1.0" xmlns="http://www.w3.org/2000/svg"
 width="500.000000pt" height="500.000000pt" viewBox="0 0 500.000000 500.000000"
 preserveAspectRatio="xMidYMid meet">

<g transform="translate(0.000000,500.000000) scale(0.100000,-0.100000)"
fill="#000000" stroke="none">
<path d="M2240 4374 c-698 -106 -1286 -586 -1519 -1241 -72 -202 -101 -353
-108 -573 -18 -524 180 -1024 552 -1395 360 -361 828 -555 1335 -555 455 0
880 159 1236 461 200 170 388 423 489 659 20 47 40 94 45 105 14 33 48 145 69
230 107 428 45 922 -166 1315 -336 628 -979 1013 -1683 1009 -85 -1 -198 -7
-250 -15z m435 -24 c341 -30 669 -160 960 -379 186 -140 391 -381 505 -594
255 -478 288 -1048 91 -1554 -139 -355 -402 -677 -726 -885 -213 -137 -443
-226 -725 -279 -81 -15 -461 -16 -550 -1 -211 36 -371 87 -552 178 -303 150
-541 361 -736 651 -54 80 -154 278 -188 373 -146 407 -150 840 -11 1246 159
465 522 870 968 1078 299 140 626 196 964 166z"/>
<path d="M2423 3455 c-32 -32 -35 -39 -30 -78 9 -68 18 -111 28 -132 12 -27
28 -103 22 -108 -2 -3 -23 0 -46 5 -53 12 -94 51 -108 103 -18 71 -20 76 -51
111 -41 47 -121 71 -185 54 -25 -6 -62 -19 -82 -29 -20 -10 -79 -33 -131 -50
-52 -18 -97 -36 -100 -42 -6 -9 -194 -57 -300 -77 l-45 -9 39 -17 c21 -9 60
-20 87 -23 54 -6 70 -18 39 -28 -29 -9 -25 -22 13 -45 20 -12 51 -20 82 -21
28 0 44 -3 38 -6 -23 -9 -13 -31 18 -42 18 -6 52 -11 77 -11 39 0 43 -2 32
-15 -19 -23 -7 -28 63 -31 l62 -3 -42 11 c-24 6 -43 14 -43 18 0 3 31 24 69
45 39 22 68 41 66 43 -2 2 -40 -8 -85 -22 -84 -27 -195 -36 -188 -15 2 6 36
25 76 42 40 18 68 33 62 35 -5 2 -46 -3 -89 -12 -81 -17 -148 -20 -175 -10
-22 8 -20 34 2 35 9 0 44 11 77 24 l60 23 -118 -1 c-75 0 -122 4 -129 11 -13
13 -17 11 92 36 102 24 242 67 259 80 19 15 168 75 214 87 48 12 101 3 145
-23 37 -23 53 -49 75 -128 19 -64 45 -93 102 -112 39 -13 40 -14 43 -65 3 -57
-8 -83 -62 -140 -33 -37 -46 -41 -46 -17 0 12 -5 14 -17 9 -10 -4 -30 -10 -45
-13 -25 -4 -28 -1 -28 21 0 25 -1 25 -27 11 -16 -7 -38 -14 -51 -14 -22 0 -21
4 22 57 25 32 43 59 41 61 -2 2 -25 -12 -52 -30 -55 -39 -130 -71 -144 -62 -5
3 -7 14 -4 23 4 15 0 17 -26 13 -19 -3 -26 -7 -19 -12 9 -5 9 -9 1 -14 -6 -4
-11 -11 -11 -17 0 -13 94 -11 125 3 28 13 45 4 27 -14 -7 -7 -12 -16 -12 -20
0 -12 58 -10 82 3 18 10 19 8 13 -12 -7 -21 -6 -22 45 -15 45 6 52 5 47 -8 -9
-23 19 -20 59 5 33 20 94 97 94 118 0 6 4 11 8 11 10 0 22 -153 22 -282 0 -64
-3 -88 -12 -88 -17 0 -159 51 -179 64 -13 9 -3 11 46 11 53 0 67 4 89 24 14
14 26 30 26 36 0 20 -83 68 -115 67 -158 -5 -245 -42 -245 -105 0 -40 21 -72
62 -93 47 -24 171 -74 186 -74 23 0 12 -26 -18 -44 -37 -22 -56 -50 -64 -98
-11 -61 22 -105 113 -152 l34 -18 -36 -34 c-45 -44 -67 -91 -67 -146 0 -58 26
-97 94 -142 51 -34 55 -39 44 -58 -43 -70 -46 -84 -27 -121 6 -12 25 -36 42
-54 29 -31 30 -34 18 -74 -30 -99 62 -159 100 -66 9 21 9 37 0 68 -12 40 -12
41 30 86 38 41 41 49 36 86 -3 22 -15 53 -26 68 l-21 28 52 34 c74 48 90 69
96 126 6 62 -10 108 -54 160 -20 23 -35 43 -33 45 2 1 24 14 49 28 25 14 53
35 63 46 45 50 25 146 -38 183 -19 12 -35 26 -35 33 0 6 26 20 58 31 153 51
202 86 202 145 0 61 -58 100 -150 100 -27 0 -52 5 -55 10 -3 6 -15 10 -27 10
-24 0 -128 -57 -128 -70 0 -5 11 -22 24 -37 22 -25 30 -28 89 -28 50 0 61 -2
48 -11 -21 -14 -162 -64 -180 -64 -11 0 -12 31 -6 178 4 97 11 181 16 186 6 6
9 5 9 -2 0 -21 67 -106 98 -124 38 -23 66 -24 58 -3 -5 13 2 15 45 9 50 -7 51
-6 44 15 -6 20 -5 22 13 12 12 -6 37 -11 57 -11 l35 0 -17 27 -18 27 25 -9
c37 -12 140 -18 140 -8 -1 14 -24 39 -42 46 -14 5 -17 1 -15 -16 2 -18 -2 -21
-23 -19 -27 4 -124 54 -153 80 -35 31 -25 5 19 -51 43 -53 44 -57 22 -57 -13
0 -35 7 -50 14 -27 14 -28 14 -28 -11 0 -22 -3 -25 -27 -21 -16 3 -36 9 -45
13 -13 5 -18 3 -18 -9 0 -23 -13 -20 -42 12 -57 62 -69 89 -66 144 3 52 4 53
43 66 58 19 83 47 105 119 26 84 34 98 72 121 44 26 97 35 145 23 47 -12 195
-72 214 -87 18 -15 153 -57 254 -79 112 -24 110 -24 97 -37 -6 -6 -56 -11
-129 -10 l-118 0 60 -24 c33 -12 68 -23 78 -23 21 -1 23 -27 1 -35 -27 -10
-94 -7 -182 10 -46 8 -85 14 -88 12 -2 -2 29 -18 68 -35 40 -17 74 -36 76 -42
7 -21 -104 -12 -188 15 -45 14 -83 24 -85 22 -2 -2 27 -21 66 -43 38 -21 69
-42 69 -45 0 -4 -19 -12 -42 -18 l-43 -11 62 3 c70 3 82 8 63 31 -11 13 -7 15
32 15 25 0 59 5 77 11 31 11 41 33 19 42 -7 3 10 6 39 6 40 1 58 7 83 28 l32
26 -22 12 c-28 15 -19 20 45 30 28 4 66 14 85 23 l35 15 -55 10 c-101 17 -281
66 -295 81 -8 8 -29 17 -47 21 -18 4 -80 26 -138 50 -139 56 -159 60 -224 41
-65 -19 -110 -65 -126 -128 -23 -93 -60 -131 -135 -139 -23 -3 -29 0 -26 11 2
8 6 29 9 45 2 17 9 36 16 44 6 7 12 30 13 50 2 20 6 57 9 83 6 45 4 50 -29 83
-29 29 -42 35 -77 35 -35 0 -48 -6 -77 -35z m133 0 c12 -8 27 -28 34 -45 16
-40 -2 -85 -44 -111 l-31 -19 28 0 c32 0 31 3 10 -51 -15 -37 -18 -91 -23
-324 -5 -264 -6 -280 -24 -283 -10 -2 -22 2 -27 10 -5 7 -9 130 -9 273 0 233
-2 265 -20 311 -20 55 -18 64 14 64 17 0 16 3 -11 20 -20 12 -35 31 -41 52
-11 42 -6 61 24 93 27 29 86 34 120 10z m-176 -657 c36 -27 37 -33 5 -54 -18
-12 -42 -15 -97 -13 -104 5 -99 -16 12 -59 177 -68 181 -72 110 -93 -35 -11
-48 -8 -157 32 -165 60 -205 104 -147 162 31 31 43 35 126 47 80 10 111 6 148
-22z m380 21 c94 -11 147 -37 156 -75 8 -30 -16 -68 -54 -88 -33 -17 -343
-131 -429 -157 -74 -23 -123 -61 -123 -95 0 -28 43 -58 141 -99 121 -51 149
-65 184 -97 48 -41 65 -77 65 -136 0 -57 -20 -79 -145 -162 -44 -29 -90 -62
-102 -73 -29 -26 -30 -73 -3 -107 32 -41 23 -47 -15 -10 -72 70 -41 135 117
247 97 68 117 101 95 155 -20 47 -66 76 -214 136 -73 29 -130 59 -151 79 -32
31 -34 36 -29 80 8 77 42 99 302 198 183 70 230 91 230 105 0 12 -13 14 -63
12 -66 -4 -117 10 -126 33 -3 8 12 24 37 39 23 14 42 25 42 26 0 0 39 -5 85
-11z m-73 -306 c46 -30 63 -58 63 -107 0 -40 -28 -71 -100 -110 -45 -25 -55
-27 -80 -16 -17 7 -28 16 -25 20 3 5 34 22 69 38 82 39 95 60 60 101 -14 17
-47 38 -75 48 -54 20 -60 29 -26 43 39 15 72 11 114 -17z m-169 -105 c-2 -75
-6 -93 -18 -93 -12 0 -16 18 -18 93 -3 87 -2 92 18 92 20 0 21 -5 18 -92z
m-58 -3 c0 -45 -4 -75 -10 -75 -17 0 -105 47 -118 63 -16 19 2 41 53 66 70 35
75 32 75 -54z m152 56 c57 -24 75 -45 57 -67 -14 -17 -101 -64 -119 -64 -6 0
-10 30 -10 75 0 85 2 86 72 56z m-158 -234 c16 -11 14 -15 -23 -35 -110 -62
-107 -150 9 -219 37 -21 45 -40 20 -48 -25 -8 -70 16 -120 64 -36 34 -40 43
-40 85 0 107 92 198 154 153z m62 -120 c1 -178 -20 -204 -29 -34 -5 116 -3
131 16 124 8 -2 12 -34 13 -90z m-46 -22 c0 -77 -3 -95 -15 -95 -21 0 -95 74
-95 95 0 22 72 95 94 95 14 0 16 -14 16 -95z m116 73 c68 -52 71 -82 12 -132
-55 -48 -68 -47 -68 7 0 62 12 147 20 147 4 0 20 -10 36 -22z m-7 -304 c32
-40 27 -82 -14 -128 -19 -22 -35 -33 -35 -26 0 8 10 24 21 36 12 13 22 35 22
49 0 14 -10 36 -22 49 -11 12 -21 28 -21 34 0 21 28 13 49 -14z m-69 -75 c0
-37 -4 -58 -10 -54 -5 3 -10 31 -10 61 0 30 5 54 10 54 6 0 10 -27 10 -61z
m-40 5 c0 -31 -2 -35 -15 -24 -18 15 -19 32 -3 48 17 17 18 16 18 -24z m90 1
c0 -7 -7 -18 -15 -25 -13 -11 -15 -7 -15 25 0 32 2 36 15 25 8 -7 15 -18 15
-25z m-23 -202 c-3 -10 -5 -4 -5 12 0 17 2 24 5 18 2 -7 2 -21 0 -30z m-70 -5
c-3 -7 -5 -2 -5 12 0 14 2 19 5 13 2 -7 2 -19 0 -25z"/>
<path d="M3162 1564 c-2 -40 -11 -48 -33 -28 -10 9 -23 13 -29 9 -8 -5 -3 -15
16 -30 l29 -23 -27 -12 c-16 -8 -24 -18 -21 -26 4 -11 9 -11 26 1 30 21 35 19
40 -17 l4 -33 1 33 c2 36 8 39 39 17 31 -22 38 0 8 24 l-26 20 26 17 c18 12
23 20 16 27 -8 8 -15 7 -23 -1 -21 -21 -37 -13 -41 21 l-4 32 -1 -31z"/>
<path d="M1477 1563 c-9 -8 -9 -226 -1 -247 16 -41 24 -6 24 99 l0 115 56 0
c102 0 154 -45 154 -135 0 -56 -21 -100 -58 -119 -15 -7 -58 -17 -96 -21 -81
-8 -76 -21 14 -30 58 -6 69 -4 100 17 43 29 80 99 80 153 0 107 -78 175 -200
175 -37 0 -70 -3 -73 -7z"/>
<path d="M1880 1548 c-54 -37 -73 -71 -78 -137 -5 -73 24 -143 72 -172 42 -26
119 -25 162 1 69 44 94 156 52 240 -44 86 -137 116 -208 68z m136 -34 c55 -37
72 -139 34 -202 -77 -126 -251 -23 -209 125 22 82 109 119 175 77z"/>
<path d="M2240 1548 c-54 -37 -73 -71 -78 -137 -5 -73 24 -143 72 -172 47 -28
127 -26 163 5 41 36 20 52 -34 25 -36 -18 -48 -19 -76 -10 -83 28 -116 130
-69 217 27 51 113 71 160 38 22 -15 42 -12 42 7 0 5 -15 18 -32 29 -45 27
-106 26 -148 -2z"/>
<path d="M2602 1548 c-26 -16 -30 -23 -21 -34 10 -12 15 -12 35 1 52 34 124 9
124 -44 0 -33 -16 -58 -92 -144 -37 -43 -68 -84 -68 -92 0 -12 19 -15 105 -15
98 0 105 1 105 20 0 18 -7 20 -76 20 l-76 0 44 51 c76 88 91 116 92 165 1 38
-4 50 -27 70 -35 30 -98 31 -145 2z"/>
<path d="M2897 1455 c-43 -63 -77 -121 -77 -130 0 -11 18 -15 83 -17 l82 -3 3
-42 c2 -29 8 -43 17 -43 9 0 15 14 17 43 3 38 6 42 31 45 15 2 27 9 27 17 0 8
-12 15 -27 17 -24 3 -28 8 -31 41 -2 23 -8 37 -17 37 -9 0 -15 -14 -17 -37
l-3 -38 -59 -3 c-70 -4 -70 -8 12 115 79 119 76 113 54 113 -13 0 -42 -35 -95
-115z"/>
<path d="M3280 1520 c0 -43 3 -50 20 -50 16 0 20 7 20 30 l0 30 70 0 c39 0 70
-2 70 -4 0 -3 -25 -70 -56 -151 -31 -80 -54 -149 -51 -152 17 -17 38 19 90
154 31 83 57 160 57 172 0 20 -4 21 -110 21 l-110 0 0 -50z"/>
</g>
</svg>
